<svg xmlns="http://www.w3.org/2000/svg" version="1.1" xmlns:xlink="http://www.w3.org/1999/xlink" xmlns:svgjs="http://svgjs.dev/svgjs" width="1000" height="1000" viewBox="0 0 1000 1000"><rect width="1000" height="1000" fill="#f5ba41"></rect><g transform="matrix(0.7,0,0,0.7,149.90044910179654,149.90044910179637)"><svg viewBox="0 0 334 334" data-background-color="#f5ba41" preserveAspectRatio="xMidYMid meet" height="1000" width="1000" xmlns="http://www.w3.org/2000/svg" xmlns:xlink="http://www.w3.org/1999/xlink"><g id="tight-bounds" transform="matrix(1,0,0,1,0.04749999999998522,0.04750000000001364)"><svg viewBox="0 0 333.90454557049503 333.90454557049503" height="333.90454557049503" width="333.90454557049503"><g><svg></svg></g><g><svg viewBox="0 0 333.90454557049503 333.90454557049503" height="333.90454557049503" width="333.90454557049503"><g><path d="M0 166.952c0-92.205 74.747-166.952 166.952-166.952 92.205 0 166.952 74.747 166.953 166.952 0 92.205-74.747 166.952-166.953 166.953-92.205 0-166.952-74.747-166.952-166.953zM166.952 316.63c82.665 0 149.677-67.013 149.678-149.678 0-82.665-67.013-149.677-149.678-149.677-82.665 0-149.677 67.013-149.677 149.677 0 82.665 67.013 149.677 149.677 149.678z" data-fill-palette-color="tertiary" fill="#fbeaab" stroke="transparent"></path><ellipse rx="160.27418187383762" ry="160.27418187383762" cx="166.95227278524752" cy="166.95227278524752" fill="#fbeaab" stroke="transparent" stroke-width="0" fill-opacity="1" data-fill-palette-color="tertiary"></ellipse></g><g transform="matrix(1,0,0,1,99.39599584580343,71.17305217166896)"><svg viewBox="0 0 135.11255387888818 191.55844122715712" height="191.55844122715712" width="135.11255387888818"><g><svg viewBox="0 0 135.11255387888818 191.55844122715712" height="191.55844122715712" width="135.11255387888818"><g><svg viewBox="0 0 135.11255387888818 191.55844122715712" height="191.55844122715712" width="135.11255387888818"><g><svg viewBox="0 0 135.11255387888818 191.55844122715712" height="191.55844122715712" width="135.11255387888818"><g id="textblocktransform"><svg viewBox="0 0 135.11255387888818 191.55844122715712" height="191.55844122715712" width="135.11255387888818" id="textblock"><g><svg viewBox="0 0 135.11255387888818 191.55844122715712" height="191.55844122715712" width="135.11255387888818"><g transform="matrix(1,0,0,1,0,0)"><svg width="135.11255387888818" viewBox="2.3499999046325684 -25 26.44999885559082 37.5" height="191.55844122715712" data-palette-color="#f5ba41"><path d="M14.7-25L21.9-25 21.9-1.8Q22.95-2.2 23.75-2.75 24.55-3.3 25.15-4.13 25.75-4.95 26.13-6.13 26.5-7.3 26.7-8.95L26.7-8.95 28.8-8.95Q28.55-6.45 27.88-4.83 27.2-3.2 26.23-2.15 25.25-1.1 24.13-0.5 23 0.1 21.9 0.45L21.9 0.45 21.9 4Q21.9 6.65 21.25 8.33 20.6 10 19.58 10.93 18.55 11.85 17.32 12.18 16.1 12.5 14.95 12.5L14.95 12.5Q13.5 12.5 12.23 12.1 10.95 11.7 10.03 10.98 9.1 10.25 8.55 9.2 8 8.15 8 6.85L8 6.85Q8 5.5 8.58 4.42 9.15 3.35 10.1 2.55 11.05 1.75 12.25 1.18 13.45 0.6 14.7 0.2L14.7 0.2 14.7-2.55Q14.05-1.6 13.33-1.05 12.6-0.5 11.88-0.2 11.15 0.1 10.43 0.2 9.7 0.3 9.05 0.3L9.05 0.3Q5.5 0.3 3.93-1.8 2.35-3.9 2.35-7.45L2.35-7.45 2.35-25 9.55-25 9.55-8Q9.55-6.1 10.08-5.33 10.6-4.55 11.6-4.55L11.6-4.55Q12.95-4.55 13.75-5.8 14.55-7.05 14.7-8.95L14.7-8.95 14.7-25ZM10.65 6.4L10.65 6.4Q10.65 7.4 11.33 8 12 8.6 12.7 8.6L12.7 8.6Q13.6 8.6 14.15 7.5 14.7 6.4 14.7 4.15L14.7 4.15 14.7 2.7Q13 3.4 11.83 4.3 10.65 5.2 10.65 6.4Z" opacity="1" transform="matrix(1,0,0,1,0,0)" fill="#f5ba41" class="wordmark-text-0" data-fill-palette-color="quaternary" id="text-0"></path></svg></g></svg></g></svg></g></svg></g><g></g></svg></g></svg></g></svg></g></svg></g><defs></defs></svg><rect width="333.90454557049503" height="333.90454557049503" fill="none" stroke="none" visibility="hidden"></rect></g></svg></g></svg>